
        <svg xmlns="http://www.w3.org/2000/svg" xmlns:xlink="http://www.w3.org/1999/xlink" version="1.1" width="3181.8181818181824" 
        height="1227.2727272727273" viewBox="0 0 3181.8181818181824 1227.2727272727273">
			
			<g transform="scale(9.090909090909092) translate(10, 10)">
				<defs id="SvgjsDefs5029"></defs><g id="SvgjsG5030" featureKey="symbolGroupContainer" transform="matrix(1,0,0,1,0,0)" fill="#393e46"><rect xmlns="http://www.w3.org/2000/svg" width="110" height="115" rx="10" ry="10"></rect></g><g id="SvgjsG5031" featureKey="Wg4LIr-0" transform="matrix(5.477308408654079,0,0,5.477308408654079,18.356806432690107,-14.397495343748481)" fill="#4ecca3"><path d="M5.24 14.7 l-2.48 0 l3.92 -8.42 l0 0.02 l0 -0.02 l3.92 8.42 l-2.46 0 l0.92 2.04 l2.5 0 l1.52 3.26 l-2.56 0 l-1.46 -3.26 l-4.76 0 l-1.44 3.26 l-2.56 0 l1.5 -3.26 l2.5 0 z M5.24 14.7 l2.9 0 l-1.46 -3.2 z"></path></g><g id="SvgjsG5032" featureKey="qafomr-0" transform="matrix(2.496878948938014,0,0,2.496878948938014,129.0012505635132,25.018726306371917)" fill="#eeeeee"><path d="M12.36 20 l-0.98 -2.32 l-6.58 0 l-0.98 2.32 l-3.42 0 l6.22 -14 l2.94 0 l6.22 14 l-3.42 0 z M5.92 15.059999999999999 l4.36 0 l-2.18 -5.16 z M26.38 8.94 l-5.68 0 l0 2.66 l4.66 0 l0 2.74 l-4.66 0 l0 5.66 l-3.32 0 l0 -14 l9 0 l0 2.94 z M31.5 17.04 l5.74 0 l0 2.96 l-6.14 0 l-2.82 0 l0 -14 l3.22 0 l5.56 0 l0 2.96 l-5.56 0 l0 2.54 l4.16 0 l0 2.9 l-4.16 0 l0 2.64 z M54.36 6 l3.22 0 l0 14 l-2.46 0 l-6.56 -8.14 l0 8.14 l-3.22 0 l0 -14 l2.5 0 l6.52 8.14 l0 -8.14 z M68.98 8.94 l-5.68 0 l0 2.66 l4.66 0 l0 2.74 l-4.66 0 l0 5.66 l-3.32 0 l0 -14 l9 0 l0 2.94 z M80.5 6 l0 2.96 l-3.4 0 l0 11.04 l-3.22 0 l0 -11.04 l-3.4 0 l0 -2.96 l10.02 0 z"></path></g>
			</g>
		</svg>
	